Coordinates
version=1
nRows=22
nColumns=24
inDegrees=yes

Units are S.I. units (second, meters, Newtons, ...)
Angles are in degrees.

endheader
time	pelvis_tilt	pelvis_list	pelvis_rotation	pelvis_tx	pelvis_ty	pelvis_tz	hip_flexion_r	hip_adduction_r	hip_rotation_r	knee_angle_r	ankle_angle_r	subtalar_angle_r	mtp_angle_r	hip_flexion_l	hip_adduction_l	hip_rotation_l	knee_angle_l	ankle_angle_l	subtalar_angle_l	mtp_angle_l	lumbar_extension	lumbar_bending	lumbar_rotation
      2.13000000	     54.93708353	      3.91129254	     -4.14203965	      1.28672099	      1.04421404	     -0.28734377	     25.54746091	     -4.02648845	      1.49337145	    -13.48318188	    -30.77363307	      0.00000000	      0.00000000	     16.78575632	    -11.44405489	     -4.91875883	    -63.02599832	    -14.50899365	      0.00000000	      0.00000000	      0.00000000	      0.00000000	      0.00000000
      2.14000000	     54.92311864	      3.91560765	     -4.14382201	      1.28674140	      1.04419990	     -0.28734616	     25.56576786	     -4.02748621	      1.49699892	    -13.48809817	    -30.77441379	      0.00000000	      0.00000000	     16.80202822	    -11.44197148	     -4.91903954	    -63.03049146	    -14.51193148	      0.00000000	      0.00000000	      0.00000000	      0.00000000	      0.00000000
      2.15000000	     54.90969325	      3.92011957	     -4.14782069	      1.28675221	      1.04418265	     -0.28734908	     25.58397471	     -4.02824721	      1.50249605	    -13.49282364	    -30.77590570	      0.00000000	      0.00000000	     16.81835126	    -11.43912379	     -4.92197903	    -63.03508107	    -14.51291928	      0.00000000	      0.00000000	      0.00000000	      0.00000000	      0.00000000
      2.16000000	     54.89704416	      3.92404175	     -4.15299574	      1.28675487	      1.04416335	     -0.28735037	     25.60062016	     -4.02826725	      1.50897510	    -13.49730993	    -30.77799525	      0.00000000	      0.00000000	     16.83379601	    -11.43652458	     -4.92710219	    -63.03924568	    -14.51170345	      0.00000000	      0.00000000	      0.00000000	      0.00000000	      0.00000000
      2.17000000	     54.88528780	      3.92679363	     -4.15804103	      1.28675950	      1.04414743	     -0.28734963	     25.61466782	     -4.02720245	      1.51536239	    -13.50155830	    -30.78051972	      0.00000000	      0.00000000	     16.84759949	    -11.43521196	     -4.93350898	    -63.04224219	    -14.50845661	      0.00000000	      0.00000000	      0.00000000	      0.00000000	      0.00000000
      2.18000000	     54.87466178	      3.92799400	     -4.16199210	      1.28676951	      1.04414074	     -0.28734804	     25.62594178	     -4.02500355	      1.52059451	    -13.50558438	    -30.78332426	      0.00000000	      0.00000000	     16.85945390	    -11.43566693	     -4.94024978	    -63.04333833	    -14.50375498	      0.00000000	      0.00000000	      0.00000000	      0.00000000	      0.00000000
      2.19000000	     54.86528821	      3.92760305	     -4.16441308	      1.28677724	      1.04414230	     -0.28734515	     25.63502257	     -4.02189148	      1.52376729	    -13.50948928	    -30.78632696	      0.00000000	      0.00000000	     16.86952362	    -11.43749506	     -4.94662180	    -63.04211580	    -14.49844667	      0.00000000	      0.00000000	      0.00000000	      0.00000000	      0.00000000
      2.20000000	     54.85684422	      3.92619449	     -4.16528657	      1.28677883	      1.04414523	     -0.28733954	     25.64288028	     -4.01831272	      1.52427442	    -13.51350909	    -30.78953785	      0.00000000	      0.00000000	     16.87829988	    -11.43967451	     -4.95214409	    -63.03864509	    -14.49345491	      0.00000000	      0.00000000	      0.00000000	      0.00000000	      0.00000000
      2.21000000	     54.84866383	      3.92490582	     -4.16489237	      1.28678348	      1.04414506	     -0.28733307	     25.65062252	     -4.01488171	      1.52194031	    -13.51792328	    -30.79301580	      0.00000000	      0.00000000	     16.88648889	    -11.44112224	     -4.95635385	    -63.03343069	    -14.48957450	      0.00000000	      0.00000000	      0.00000000	      0.00000000	      0.00000000
      2.22000000	     54.84015888	      3.92481939	     -4.16367920	      1.28679718	      1.04414299	     -0.28732896	     25.65933840	     -4.01224311	      1.51710413	    -13.52289265	    -30.79679050	      0.00000000	      0.00000000	     16.89493126	    -11.44105741	     -4.95878816	    -63.02722752	    -14.48730482	      0.00000000	      0.00000000	      0.00000000	      0.00000000	      0.00000000
      2.23000000	     54.83104234	      3.92642332	     -4.16204947	      1.28680967	      1.04414180	     -0.28732742	     25.66980203	     -4.01087409	      1.51060594	    -13.52838909	    -30.80079369	      0.00000000	      0.00000000	     16.90440505	    -11.43915971	     -4.95914926	    -63.02088455	    -14.48676116	      0.00000000	      0.00000000	      0.00000000	      0.00000000	      0.00000000
      2.24000000	     54.82125209	      3.92961486	     -4.16011602	      1.28681305	      1.04414140	     -0.28732656	     25.68211978	     -4.01083634	      1.50365994	    -13.53422184	    -30.80483322	      0.00000000	      0.00000000	     16.91531186	    -11.43563871	     -4.95748406	    -63.01525262	    -14.48768558	      0.00000000	      0.00000000	      0.00000000	      0.00000000	      0.00000000
      2.25000000	     54.81093515	      3.93384001	     -4.15770943	      1.28681933	      1.04413838	     -0.28732631	     25.69565432	     -4.01157089	      1.49764715	    -13.54006055	    -30.80862125	      0.00000000	      0.00000000	     16.92750399	    -11.43114420	     -4.95428763	    -63.01101979	    -14.48953338	      0.00000000	      0.00000000	      0.00000000	      0.00000000	      0.00000000
      2.26000000	     54.80057206	      3.93808573	     -4.15476626	      1.28684112	      1.04412945	     -0.28732766	     25.70932252	     -4.01201551	      1.49388325	    -13.54545153	    -30.81184046	      0.00000000	      0.00000000	     16.94039026	    -11.42659540	     -4.95040576	    -63.00845727	    -14.49160208	      0.00000000	      0.00000000	      0.00000000	      0.00000000	      0.00000000
      2.27000000	     54.79090250	      3.94109150	     -4.15169476	      1.28686822	      1.04411605	     -0.28732875	     25.72206009	     -4.01103898	      1.49338604	    -13.54988739	    -30.81421856	      0.00000000	      0.00000000	     16.95311974	    -11.42302130	     -4.94673699	    -63.00734334	    -14.49318541	      0.00000000	      0.00000000	      0.00000000	      0.00000000	      0.00000000
      2.28000000	     54.78249644	      3.94192554	     -4.14929314	      1.28688039	      1.04410422	     -0.28732624	     25.73315122	     -4.00789161	      1.49664891	    -13.55297140	    -30.81559433	      0.00000000	      0.00000000	     16.96473200	    -11.42131344	     -4.94396736	    -63.00720217	    -14.49372435	      0.00000000	      0.00000000	      0.00000000	      0.00000000	      0.00000000
      2.29000000	     54.77540150	      3.94047898	     -4.14837470	      1.28687490	      1.04409752	     -0.28732097	     25.74235983	     -4.00250587	      1.50348171	    -13.55460042	    -30.81597334	      0.00000000	      0.00000000	     16.97446236	    -11.42190702	     -4.94250124	    -63.00760435	    -14.49291286	      0.00000000	      0.00000000	      0.00000000	      0.00000000	      0.00000000
      2.30000000	     54.76923855	      3.93749057	     -4.14946268	      1.28686650	      1.04409315	     -0.28731790	     25.74998428	     -3.99559489	      1.51299214	    -13.55502369	    -30.81555812	      0.00000000	      0.00000000	     16.98217917	    -11.42457418	     -4.94253445	    -63.00829540	    -14.49073349	      0.00000000	      0.00000000	      0.00000000	      0.00000000	      0.00000000
      2.31000000	     54.76349691	      3.93418762	     -4.15262031	      1.28686522	      1.04408702	     -0.28731882	     25.75681820	     -3.98853680	      1.52373291	    -13.55475288	    -30.81472830	      0.00000000	      0.00000000	     16.98854725	    -11.42847006	     -4.94412425	    -63.00922715	    -14.48742961	      0.00000000	      0.00000000	      0.00000000	      0.00000000	      0.00000000
      2.32000000	     54.75767055	      3.93185865	     -4.15733109	      1.28686600	      1.04407941	     -0.28731977	     25.76394373	     -3.98305474	      1.53401096	    -13.55439760	    -30.81396111	      0.00000000	      0.00000000	     16.99468247	    -11.43244135	     -4.94717019	    -63.01060515	    -14.48343767	      0.00000000	      0.00000000	      0.00000000	      0.00000000	      0.00000000
      2.33000000	     54.75123795	      3.93153914	     -4.16247814	      1.28686163	      1.04407226	     -0.28731823	     25.77233990	     -3.98068914	      1.54228103	    -13.55451131	    -30.81370533	      0.00000000	      0.00000000	     17.00159046	    -11.43543094	     -4.95135876	    -63.01287191	    -14.47930278	      0.00000000	      0.00000000	      0.00000000	      0.00000000	      0.00000000
      2.34000000	     54.74371871	      3.93372546	     -4.16656792	      1.28685981	      1.04406420	     -0.28731798	     25.78245204	     -3.98222647	      1.54749005	    -13.55546317	    -30.81424454	      0.00000000	      0.00000000	     17.00985439	    -11.43675751	     -4.95617598	    -63.01652025	    -14.47558835	      0.00000000	      0.00000000	      0.00000000	      0.00000000	      0.00000000
